<?xml version="1.0" encoding="UTF-8" standalone="no"?>
<svg
   width="520"
   height="135"
   version="1.1"
   id="svg7306"
   sodipodi:docname="NewLogo_1-2.svg"
   inkscape:version="1.2.1 (9c6d41e410, 2022-07-14)"
   viewBox="0 0 520 135"
   xml:space="preserve"
   xmlns:inkscape="http://www.inkscape.org/namespaces/inkscape"
   xmlns:sodipodi="http://sodipodi.sourceforge.net/DTD/sodipodi-0.dtd"
   xmlns="http://www.w3.org/2000/svg"
   xmlns:svg="http://www.w3.org/2000/svg"><defs
     id="defs7310" /><sodipodi:namedview
     id="namedview7308"
     pagecolor="#ffffff"
     bordercolor="#000000"
     borderopacity="0.25"
     inkscape:showpageshadow="2"
     inkscape:pageopacity="0.0"
     inkscape:pagecheckerboard="true"
     inkscape:deskcolor="#d1d1d1"
     showgrid="true"
     inkscape:zoom="3.4300092"
     inkscape:cx="452.33114"
     inkscape:cy="115.8889"
     inkscape:window-width="1433"
     inkscape:window-height="1040"
     inkscape:window-x="516"
     inkscape:window-y="33"
     inkscape:window-maximized="0"
     inkscape:current-layer="svg7306"
     inkscape:lockguides="true"
     showguides="false"><sodipodi:guide
       position="94.618828,79.893499"
       orientation="0,-1"
       id="guide5496"
       inkscape:locked="true" /><inkscape:grid
       type="xygrid"
       id="grid7383"
       dotted="false"
       originx="0"
       originy="0" /></sodipodi:namedview><path
     fill="#000000"
     stroke="#000000"
     stroke-width="0"
     opacity="undefined"
     id="svg_50"
     d="" /><g
     id="g1446"
     transform="translate(0.736065,1.9676165)"><path
       d="m 179.64241,51.348919 h 38.40533 c 2.86667,0 6.84267,2.722667 8.016,5.490667 l 3.60667,8.5 h -36.78667 c -3.68266,0 -8.78933,-3.497334 -10.29733,-7.052 z"
       style="fill:#c7000c;fill-opacity:1;fill-rule:nonzero;stroke:none;stroke-width:1.33333"
       id="path1592" /><path
       d="M 175.66908,10.497454 C 171.33708,3.738787 162.70374,0.360121 149.77041,0.360121 h -17.42 c -11.42533,0 -21.432,7.661333 -24.41333,18.690666 h 11.848 c 2.512,0 4.89466,-1.034667 6.664,-2.818667 1.16533,-1.174666 2.776,-1.881333 4.516,-1.881333 h 14.696 c 7.468,0 12.116,1.884 13.93733,5.657333 1.82267,3.770667 1.396,10.610666 -1.28267,20.521333 -2.688,9.948 -5.96,16.798666 -9.816,20.550666 -3.856,3.752 -9.52,5.628 -16.98933,5.628 h -19.564 l 9.09733,-33.665333 H 104.15708 L 91.277081,80.698785 h 37.273329 c 6.19333,0 11.296,-0.545333 15.30933,-1.638666 3.80934,-1.02 7.684,-2.822667 11.62667,-5.410667 10.016,-6.593333 16.98933,-17.159999 20.91867,-31.698666 3.84,-14.210666 3.59333,-24.694666 -0.736,-31.453332"
       style="fill:#c7000c;fill-opacity:1;fill-rule:nonzero;stroke:none;stroke-width:1.33333"
       id="path1589" /><path
       d="m 518.52787,81.888652 h -7.90667 c -4.51866,0 -8.48,-3.025333 -9.67066,-7.385333 l -12.676,-46.446666 -25.24,48.605332 c -1.78267,3.485334 -4.25867,5.226667 -7.43334,5.226667 -3.56133,0 -6.27066,-1.78 -8.12933,-5.341333 L 422.3732,28.321987 409.67054,74.552652 c -1.18934,4.333333 -5.128,7.336 -9.62134,7.336 h -8.072 L 411.58387,8.140654 c 0.46533,-2.090667 1.49067,-3.908 3.07867,-5.458667 1.58533,-1.546666 3.42666,-2.321333 5.516,-2.321333 3.02,0 5.88266,2.593333 8.59466,7.78 l 26.48,51.914665 26.59467,-51.914665 c 2.70933,-5.186667 5.576,-7.78 8.59467,-7.78 2.012,0 3.872,0.812 5.57466,2.437333 1.47067,1.472 2.47867,3.252 3.02,5.342667 z"
       style="fill:#595757;fill-opacity:1;fill-rule:nonzero;stroke:none;stroke-width:1.33333"
       id="path1586" /><path
       d="m 237.24921,33.93292 c 0.0867,3.546666 1.04533,6.408 2.93467,8.537333 3.28133,3.697333 9.54799,5.546666 18.80399,5.546666 h 19.94934 c 4.372,0 7.26666,0.710667 8.68666,2.130667 1.42,1.421333 1.676,3.808 0.76934,7.161333 -0.88534,3.278667 -2.50934,5.610667 -4.86934,6.994667 -2.35733,1.385333 -5.92533,2.076 -10.69733,2.076 l -42.23866,-0.076 2.944,7.139999 c 1.376,3.34 5.744,6.597334 9.29866,7.144 0.22267,0.03467 0.448,0.05867 0.67867,0.076 0.104,0.0053 0.216,0.036 0.32,0.036 h 0.28667 27.51999 2.14534 l -0.0213,-0.05467 c 8.67734,-0.269334 15.61334,-2.178667 20.76134,-5.766667 5.56666,-3.88 9.468,-9.954666 11.70133,-18.223999 2.20667,-8.164 1.824,-13.993333 -1.148,-17.490667 -2.97067,-3.498666 -9.084,-5.246666 -18.33867,-5.246666 h -17.62666 l 0.005,0.016 z"
       style="fill:#595757;fill-opacity:1;fill-rule:nonzero;stroke:none;stroke-width:1.33333"
       id="path1583" /><path
       d="m 273.34294,0.359987 c -9.80267,0 -17.48267,1.968 -23.04533,5.902667 -4.40533,3.113333 -7.76933,7.689333 -10.132,13.679999 h 12.22533 c 7.60133,0 8.916,-2.466666 9.40267,-2.805333 2.55066,-1.781333 4.77333,-2.458666 10.13866,-2.458666 h 33.57067 c 4.83067,0 9.06,-3.237334 10.32,-7.901334 l 1.73467,-6.417333 z"
       style="fill:#595757;fill-opacity:1;fill-rule:nonzero;stroke:none;stroke-width:1.33333"
       id="path1580" /><path
       d="m 62.764151,0.359987 c -12.89867,0 -23.352,3.388 -31.36,10.165333 -3.064,2.593334 -5.81734,5.738667 -8.27067,9.417333 h 14.012 c 3.384,0 6.79733,-0.710666 9.67733,-2.488 3.46134,-2.134666 7.52,-3.213333 12.18934,-3.213333 h 22.224 c 8.33333,0 15.632,-5.589333 17.804,-13.634666 l 0.0667,-0.246667 z"
       style="fill:#c7000c;fill-opacity:1;fill-rule:nonzero;stroke:none;stroke-width:1.33333"
       id="path1577" /><path
       d="m 13.648281,41.951186 c -3.92933,14.537333 -2.668,25.105333 3.784,31.698666 2.544,2.586667 5.42667,4.390667 8.64933,5.410667 3.456,1.092 8.44667,1.638666 14.97067,1.638666 h 27.24533 c 5.36934,0 10.072,-3.6 11.472,-8.782666 l 10.504,-38.874666 h -31.908 c -4.74666,0 -8.90266,3.182667 -10.14133,7.765333 l -1.74267,6.445333 h 22.628 l -5.10933,18.909333 h -19.02 c -6.66933,0 -10.984,-1.964 -12.94533,-5.896 -1.96267,-3.930666 -1.75734,-10.282666 0.61333,-19.053332 0.712,-2.634667 1.496,-5.046667 2.34,-7.28 h -18.768 c -0.93333,2.538666 -1.80533,5.184 -2.572,8.018666"
       style="fill:#c7000c;fill-opacity:1;fill-rule:nonzero;stroke:none;stroke-width:1.33333"
       id="path1574" /><path
       d="m 361.27387,38.398386 h -11.21466 l -0.012,0.04 h -5.872 c 3.216,10.005333 8.83866,14.169333 14.86666,14.169333 0.012,0 -0.94933,0 14.59067,0 5.65867,0 10.65066,-3.713333 12.272,-9.134666 l 1.52266,-5.093333 c -25.66799,0.0053 -25.90399,0.01867 -26.15333,0.01867"
       style="fill:#595757;fill-opacity:1;fill-rule:nonzero;stroke:none;stroke-width:1.33333"
       id="path1571" /><path
       d="m 346.72574,0.359987 c -7.472,0 -14.01733,5.010667 -15.96667,12.224 l -18.408,68.114665 h 8.89467 c 4.71733,0 8.848,-3.162667 10.07867,-7.717333 l 5.50533,-20.373333 h -0.005 l 3.88266,-14.209333 h -0.036 l 4.77734,-17.678666 c 0.964,-3.565334 4.19733,-6.041333 7.89066,-6.041333 h 13.30534 c 0.068,0 -0.85867,0.0027 17.02666,0.004 6.096,0 11.48133,-4.004 13.22533,-9.846667 l 1.336,-4.476 z"
       style="fill:#595757;fill-opacity:1;fill-rule:nonzero;stroke:none;stroke-width:1.33333"
       id="path1568" /><path
       d="m 21.877481,116.32558 c -0.23067,1.15334 -0.65067,2.24934 -1.25867,3.28667 -0.61066,1.03733 -1.416,1.95733 -2.42,2.75733 -0.54933,0.44934 -1.12666,0.82667 -1.732,1.13334 -0.604,0.304 -1.224,0.56 -1.856,0.75866 -0.63466,0.20134 -1.272,0.35334 -1.916,0.46 -0.64266,0.10534 -1.264,0.18267 -1.86666,0.22934 -1.00934,0.0693 -2.00534,0.0667 -2.98267,-0.0173 -0.97867,-0.0827 -1.904,-0.20666 -2.77733,-0.37066 -0.9373399,-0.188 -1.7893399,-0.572 -2.5586699,-1.15067 -0.76933,-0.576 -1.38,-1.27733 -1.83067004,-2.10267 -0.132,-0.28266 -0.25733,-0.61866 -0.372,-1.008 -0.11466,-0.38933 -0.19866,-0.80133 -0.252,-1.23733 -0.0547000012,-0.43467 -0.0693,-0.872 -0.04,-1.308 0.028,-0.436 0.108,-0.84267 0.236,-1.22 H 6.226811 c -0.11866,0.59067 -0.16666,1.16133 -0.14666,1.71467 0.0213,0.55466 0.13066,1.068 0.328,1.53866 0.27866,0.68267 0.71066,1.184 1.29333,1.50267 0.58267,0.31867 1.264,0.512 2.04533,0.58267 0.876,0.072 1.68,0 2.412,-0.212 0.73067,-0.212 1.364,-0.51734 1.90134,-0.92 0.65733,-0.49467 1.14666,-1.08267 1.468,-1.76667 0.32133,-0.68267 0.432,-1.344 0.32666,-1.97867 -0.088,-0.61333 -0.38266,-1.15466 -0.88666,-1.628 -0.504,-0.47066 -1.26,-0.8 -2.268,-0.98933 -0.936,-0.18933 -1.90267,-0.41733 -2.9,-0.68933 -0.99734,-0.27067 -1.90667,-0.57067 -2.73334,-0.90134 -0.80266,-0.33066 -1.44933,-0.80133 -1.936,-1.41466 -0.4893299,-0.612 -0.8413299,-1.332 -1.0586599,-2.156 -0.216,-0.82534 -0.26267,-1.62 -0.14134,-2.38667 0.12,-0.76533 0.41334,-1.596 0.87734,-2.492 0.4706599,-0.92 1.0826599,-1.76267 1.8413299,-2.528 0.756,-0.76667 1.65867,-1.42 2.70667,-1.96267 0.956,-0.47066 1.96266,-0.82 3.016,-1.044 1.052,-0.22266 2.096,-0.33466 3.13466,-0.33466 0.89467,0 1.81334,0.0653 2.75467,0.19466 0.94133,0.12934 1.79867,0.336 2.568,0.61867 1.37867,0.54267 2.336,1.41333 2.87067,2.616 0.252,0.61333 0.42133,1.29067 0.50666,2.03333 0.0867,0.74267 0.10934,1.56134 0.0707,2.45734 h -6.08136 c 0.092,-0.496 0.13866,-0.996 0.14,-1.504 0,-0.50667 -0.0813,-0.972 -0.244,-1.396 -0.27067,-0.636 -0.69867,-1.1 -1.288,-1.39734 -0.58934,-0.29466 -1.26667,-0.416 -2.03467,-0.37066 -0.532,0.048 -1.068,0.15466 -1.60933,0.31866 -0.54134,0.16534 -1.04667,0.41334 -1.51734,0.74267 -0.52266,0.352 -0.948,0.79467 -1.27333,1.32533 -0.32533,0.53067 -0.49467,1.148 -0.504,1.85467 0.016,0.61467 0.25867,1.09867 0.724,1.45067 0.468,0.35466 0.956,0.62533 1.47067,0.81333 0.55866,0.18933 1.156,0.35333 1.78666,0.49467 0.632,0.14133 1.26267,0.30666 1.89334,0.496 1.04666,0.30666 2.04933,0.66 3.008,1.06 0.96,0.40133 1.73066,0.956 2.30933,1.66266 0.42,0.51734 0.70667,1.13067 0.86267,1.83734 0.15466,0.70666 0.14,1.556 -0.0427,2.54666"
       style="fill:#595757;fill-opacity:1;fill-rule:nonzero;stroke:none;stroke-width:1.33333"
       id="path1565" /><path
       d="m 29.122281,103.73825 1.41067,-5.02 h 5.44533 l -1.41067,5.02 z m -5.85733,20.86 5.28133,-18.80933 h 5.44533 l -5.28133,18.80933 z"
       style="fill:#595757;fill-opacity:1;fill-rule:nonzero;stroke:none;stroke-width:1.33333"
       id="path1562" /><path
       d="m 53.706811,124.59772 3.852,-13.71734 c 0.132,-0.472 0.14934,-0.872 0.0533,-1.20133 -0.0973,-0.33067 -0.26267,-0.57867 -0.49867,-0.744 -0.50267,-0.30667 -1.196,-0.27067 -2.08,0.10667 -0.45467,0.18933 -0.912,0.47733 -1.37333,0.86533 -0.464,0.38933 -0.88667,0.89067 -1.272,1.504 l -3.70267,13.18667 h -5.33867 l 3.912,-13.92934 c 0.16534,-0.58933 0.12667,-1.084 -0.11333,-1.48533 -0.35333,-0.42533 -0.932,-0.54133 -1.74,-0.35333 -0.356,0.0933 -0.72267,0.24133 -1.096,0.44133 -0.37333,0.2 -0.752,0.47733 -1.13333,0.83067 -0.86934,0.82533 -1.44534,1.74533 -1.72934,2.75866 l -3.296,11.73734 h -5.23333 l 5.28133,-18.808 h 5.23334 l -0.65467,2.33333 c 0.85867,-0.96667 1.74667,-1.65067 2.66133,-2.052 0.58934,-0.25867 1.176,-0.436 1.756,-0.52933 0.58,-0.0933 1.15067,-0.12934 1.70934,-0.10667 0.536,0.024 1.008,0.10133 1.42,0.23067 0.412,0.128 0.796,0.36 1.15066,0.68933 0.26267,0.236 0.48,0.51333 0.65067,0.82933 0.16933,0.32 0.256,0.67867 0.26267,1.08 0.58,-0.63733 1.20133,-1.15466 1.86933,-1.556 0.66533,-0.40133 1.356,-0.69466 2.068,-0.884 0.66667,-0.18933 1.332,-0.29466 1.99867,-0.31733 0.66666,-0.024 1.32533,0.0227 1.97466,0.14133 0.58,0.11734 1.068,0.35334 1.464,0.70667 0.39467,0.35333 0.7,0.77733 0.916,1.272 0.444,1.01467 0.48667,2.16933 0.12134,3.46533 l -3.79067,13.50534 z"
       style="fill:#595757;fill-opacity:1;fill-rule:nonzero;stroke:none;stroke-width:1.33333"
       id="path1559" /><path
       d="m 77.643081,111.62238 c 0.092,-1.08266 -0.17067,-1.87333 -0.78533,-2.368 -0.28,-0.26 -0.636,-0.41866 -1.068,-0.47733 -0.432,-0.0587 -0.932,0.005 -1.504,0.19467 -1.012,0.32933 -1.91734,0.95466 -2.71867,1.872 l -2.54133,9.052 c 0.21066,0.424 0.44266,0.772 0.69866,1.04266 0.252,0.27067 0.63467,0.46667 1.14267,0.58267 0.41467,0.12 0.86,0.15467 1.332,0.10667 0.472,-0.0453 0.928,-0.17734 1.364,-0.388 0.384,-0.18934 0.744,-0.44267 1.08,-0.76134 0.336,-0.31733 0.60667,-0.71333 0.808,-1.184 0.53467,-1.22533 1.01067,-2.504 1.432,-3.836 0.42133,-1.33066 0.67467,-2.60933 0.76,-3.836 m 5.75733,1.02667 c -0.13333,1.05867 -0.37733,2.13733 -0.732,3.23333 -0.35466,1.096 -0.812,2.17467 -1.368,3.236 -0.53733,0.988 -1.12133,1.872 -1.75066,2.65067 -0.632,0.77733 -1.46667,1.46267 -2.504,2.05067 -0.77867,0.424 -1.58667,0.74266 -2.42534,0.95466 -0.83733,0.21067 -1.65333,0.30667 -2.448,0.28267 -0.86533,-0.0227 -1.65866,-0.176 -2.38133,-0.46 -0.72133,-0.28267 -1.29067,-0.72933 -1.708,-1.34267 l -2.36267,8.41334 h -5.444 l 7.276,-25.91334 h 5.444 l -0.40666,1.45067 c 0.67466,-0.472 1.37333,-0.83867 2.09333,-1.09867 0.72,-0.25733 1.46,-0.43466 2.21733,-0.52933 1.09467,-0.11867 2.10134,-0.036 3.024,0.24667 0.92134,0.28266 1.69867,0.768 2.33334,1.44933 0.66666,0.732 1.052,1.54533 1.15333,2.44 0.10133,0.896 0.0973,1.87467 -0.0107,2.936"
       style="fill:#595757;fill-opacity:1;fill-rule:nonzero;stroke:none;stroke-width:1.33333"
       id="path1556" /><path
       d="m 83.898281,124.59772 7.256,-25.844 h 5.44533 l -7.256,25.844 z"
       style="fill:#595757;fill-opacity:1;fill-rule:nonzero;stroke:none;stroke-width:1.33333"
       id="path1553" /><path
       d="m 100.36055,103.73825 1.41066,-5.02 h 5.44534 l -1.41067,5.02 z m -5.857339,20.86 5.28134,-18.80933 h 5.445329 l -5.281329,18.80933 z"
       style="fill:#595757;fill-opacity:1;fill-rule:nonzero;stroke:none;stroke-width:1.33333"
       id="path1550" /><path
       d="m 119.28628,101.93492 c -0.236,0 -0.508,0.10666 -0.81467,0.31866 -0.30667,0.21067 -0.49733,0.448 -0.56933,0.708 l -0.964,3.42934 h 4.06666 l -0.89333,3.18133 h -4.06666 l -4.21867,15.02533 h -5.48 l 4.21867,-15.02533 h -3.18134 l 0.89334,-3.18133 h 3.18133 l 1.07333,-3.81867 c 0.36267,-1.296 1.012,-2.264 1.94534,-2.9 0.90133,-0.612 1.90666,-0.91867 3.01466,-0.91867 h 6.36533 l -0.89333,3.18134 z"
       style="fill:#595757;fill-opacity:1;fill-rule:nonzero;stroke:none;stroke-width:1.33333"
       id="path1547" /><path
       d="m 126.94841,128.91145 c -0.21067,0.32933 -0.492,0.65867 -0.84267,0.988 -0.35333,0.33067 -0.73866,0.632 -1.156,0.90267 -0.41733,0.27066 -0.856,0.488 -1.31466,0.65333 -0.46,0.16533 -0.912,0.24933 -1.36,0.24933 h -5.16134 l -0.21333,-3.148 h 3.148 c 0.824,0 1.464,-0.352 1.924,-1.06 l 2.456,-3.71333 -2.05333,-17.99467 h 5.97466 l 0.77467,10.712 6.86267,-10.712 h 5.868 z"
       style="fill:#595757;fill-opacity:1;fill-rule:nonzero;stroke:none;stroke-width:1.33333"
       id="path1544" /><path
       d="m 155.93934,128.91145 c -0.21066,0.32933 -0.492,0.65867 -0.84266,0.988 -0.35334,0.33067 -0.73867,0.632 -1.156,0.90267 -0.41734,0.27066 -0.856,0.488 -1.31467,0.65333 -0.46,0.16533 -0.912,0.24933 -1.36,0.24933 h -5.16133 l -0.21334,-3.148 h 3.148 c 0.824,0 1.464,-0.352 1.924,-1.06 l 2.456,-3.71333 -2.05333,-17.99467 h 5.97467 l 0.77466,10.712 6.86267,-10.712 h 5.868 z"
       style="fill:#595757;fill-opacity:1;fill-rule:nonzero;stroke:none;stroke-width:1.33333"
       id="path1541" /><path
       d="m 180.48094,118.94145 c 0.26,-0.58933 0.52134,-1.208 0.78667,-1.85733 0.26533,-0.648 0.50133,-1.30134 0.71067,-1.96134 0.208,-0.65866 0.368,-1.31466 0.48,-1.96133 0.11066,-0.648 0.156,-1.268 0.132,-1.85733 -0.0373,-0.70667 -0.19334,-1.30267 -0.47067,-1.784 -0.27733,-0.484 -0.82533,-0.73734 -1.64267,-0.76267 -0.84266,-0.0213 -1.57066,0.21867 -2.184,0.72667 -0.61333,0.50666 -1.156,1.13733 -1.62533,1.89066 -0.27467,0.47334 -0.53733,1.02534 -0.78667,1.66134 -0.24933,0.63733 -0.47333,1.29066 -0.67466,1.96266 -0.2,0.672 -0.364,1.33734 -0.49067,1.99867 -0.12533,0.65867 -0.212,1.23733 -0.256,1.73067 -0.056,0.872 0.0773,1.59733 0.39733,2.176 0.32134,0.57733 0.956,0.85333 1.904,0.83066 0.84934,0 1.59467,-0.26 2.23467,-0.77866 0.64133,-0.51734 1.136,-1.19067 1.48533,-2.01467 m 7.09867,-3.5 c -0.27467,0.89467 -0.64,1.83733 -1.09333,2.828 -0.45467,0.98933 -1.016,1.87333 -1.68134,2.65067 -1.096,1.29733 -2.38,2.28666 -3.85733,2.97066 -1.476,0.684 -2.976,1.048 -4.49733,1.09467 -1.66934,0.072 -3.06934,-0.128 -4.19734,-0.6 -1.12933,-0.472 -1.97333,-1.17867 -2.53333,-2.12133 -1.016,-1.67334 -1.152,-3.912 -0.41067,-6.71734 0.33867,-1.29733 0.87067,-2.604 1.596,-3.924 0.724,-1.32 1.672,-2.47466 2.84667,-3.46533 1.10667,-0.91733 2.30667,-1.60133 3.59867,-2.05067 1.29333,-0.448 2.58533,-0.672 3.88266,-0.672 1.41467,0 2.644,0.27867 3.692,0.83067 1.04534,0.55467 1.856,1.36267 2.43067,2.42267 0.52133,0.99066 0.78533,2.052 0.78533,3.18133 0,1.132 -0.18666,2.32133 -0.56133,3.572"
       style="fill:#595757;fill-opacity:1;fill-rule:nonzero;stroke:none;stroke-width:1.33333"
       id="path1538" /><path
       d="m 199.75241,124.59772 0.516,-1.83867 c -0.66533,0.51867 -1.34133,0.93067 -2.028,1.23867 -0.68667,0.30533 -1.38267,0.54133 -2.08933,0.70666 -1.28134,0.28134 -2.39867,0.35867 -3.352,0.22934 -0.95334,-0.13067 -1.736,-0.45467 -2.344,-0.97334 -0.62534,-0.54133 -1.01867,-1.3 -1.18,-2.28 -0.16134,-0.97733 -0.048,-2.16133 0.34266,-3.55333 l 3.46534,-12.33733 h 5.44533 l -3.57467,12.72666 c -0.15866,0.56534 -0.204,1.084 -0.136,1.55467 0.068,0.472 0.228,0.84933 0.47734,1.13333 0.532,0.54134 1.336,0.65867 2.41066,0.35334 0.74267,-0.212 1.45867,-0.596 2.14267,-1.15067 0.688,-0.55333 1.208,-1.124 1.56133,-1.71467 l 3.624,-12.90266 h 5.444 l -5.28133,18.808 z"
       style="fill:#595757;fill-opacity:1;fill-rule:nonzero;stroke:none;stroke-width:1.33333"
       id="path1535" /><path
       d="m 224.52268,109.58985 c -0.476,-0.10533 -0.96534,-0.14667 -1.468,-0.12533 -0.908,0.048 -1.76934,0.26266 -2.58134,0.63733 -0.544,0.26 -1.06666,0.60667 -1.56533,1.04267 -0.5,0.43733 -0.91067,0.89066 -1.232,1.36266 l -3.39467,12.09067 h -5.44266 l 5.29066,-18.844 h 5.444 l -0.71466,2.54533 c 0.58533,-0.65866 1.22666,-1.20133 1.924,-1.62666 0.696,-0.424 1.416,-0.74267 2.15733,-0.95334 1.388,-0.4 2.724,-0.42533 4.016,-0.0707 l -1.23067,4.384 c -0.324,-0.19067 -0.72666,-0.336 -1.20266,-0.44267"
       style="fill:#595757;fill-opacity:1;fill-rule:nonzero;stroke:none;stroke-width:1.33333"
       id="path1532" /><path
       d="m 247.03561,111.19798 c 0,-0.25733 -0.0107,-0.51333 -0.0347,-0.76 -0.0253,-0.24666 -0.088,-0.48933 -0.18533,-0.724 -0.092,-0.26 -0.252,-0.46533 -0.48,-0.62 -0.22933,-0.152 -0.5,-0.252 -0.81867,-0.3 -0.30933,-0.0707 -0.64666,-0.088 -1.00933,-0.0533 -0.364,0.0373 -0.70933,0.0893 -1.03467,0.15867 -0.38,0.096 -0.74133,0.26666 -1.08,0.51333 -0.34133,0.24933 -0.54533,0.572 -0.60933,0.97333 -0.0693,0.32934 -0.0227,0.624 0.14,0.884 0.16267,0.25867 0.428,0.448 0.796,0.56534 0.52533,0.14133 1.06933,0.3 1.63333,0.47733 0.56267,0.17733 1.11334,0.35867 1.64934,0.548 0.536,0.18933 1.044,0.376 1.52,0.56533 0.47733,0.188 0.89066,0.37734 1.23866,0.56534 0.636,0.33066 1.17067,0.76 1.6,1.29066 0.428,0.53067 0.66267,1.18267 0.70267,1.96134 0.044,0.684 -0.0653,1.41466 -0.332,2.192 -0.26667,0.77866 -0.65334,1.48533 -1.16133,2.12266 -0.656,0.82534 -1.38934,1.484 -2.19867,1.97867 -0.81067,0.496 -1.7,0.87333 -2.66933,1.132 -0.50534,0.116 -1.04934,0.21333 -1.636,0.28133 -0.584,0.0707 -1.17334,0.112 -1.76667,0.12534 -0.592,0.0107 -1.17333,0 -1.73867,-0.0347 -0.56933,-0.0373 -1.08266,-0.11333 -1.54666,-0.23067 -0.836,-0.212 -1.59067,-0.54133 -2.26667,-0.98933 -0.676,-0.448 -1.15733,-1.08533 -1.444,-1.90933 -0.18533,-0.51867 -0.284,-1.09067 -0.296,-1.71467 -0.0133,-0.62533 0.028,-1.232 0.12267,-1.82133 h 5.48 c 0.003,0.33066 0.0107,0.672 0.0307,1.024 0.0187,0.35466 0.076,0.69733 0.172,1.02666 0.1,0.30667 0.252,0.56534 0.45334,0.77867 0.19866,0.21067 0.47733,0.35333 0.83466,0.42267 0.39867,0.0947 0.844,0.16533 1.33734,0.212 0.492,0.048 0.97466,-0.0107 1.44666,-0.176 0.392,-0.14267 0.71334,-0.34134 0.96267,-0.60134 0.25067,-0.25866 0.44,-0.54266 0.57467,-0.848 0.15333,-0.37733 0.18133,-0.74933 0.0827,-1.11333 -0.0987,-0.36667 -0.33066,-0.64267 -0.70266,-0.83067 -0.268,-0.14266 -0.60934,-0.28933 -1.02534,-0.44266 -0.41733,-0.15334 -0.864,-0.30667 -1.33866,-0.45867 -0.476,-0.15333 -0.95734,-0.30667 -1.444,-0.46133 -0.48667,-0.152 -0.93067,-0.276 -1.328,-0.37067 -0.65467,-0.188 -1.21734,-0.424 -1.692,-0.70667 -0.47467,-0.28266 -0.83867,-0.648 -1.08934,-1.096 -0.32,-0.54266 -0.47066,-1.17733 -0.45333,-1.908 0.016,-0.732 0.168,-1.43866 0.45333,-2.12133 0.37734,-0.92133 0.94134,-1.756 1.696,-2.512 0.75334,-0.752 1.59867,-1.33067 2.53734,-1.732 1.04533,-0.448 2.152,-0.74133 3.324,-0.884 1.17066,-0.14133 2.288,-0.14133 3.35733,0 0.90933,0.11867 1.72,0.336 2.43333,0.65333 0.712,0.32 1.28533,0.832 1.724,1.54 0.32667,0.51734 0.552,1.05334 0.68,1.608 0.128,0.55467 0.19333,1.16134 0.19733,1.82 z"
       style="fill:#595757;fill-opacity:1;fill-rule:nonzero;stroke:none;stroke-width:1.33333"
       id="path1529" /><path
       d="m 263.70747,124.59772 h -6.152 c -0.56533,0 -1.008,-0.124 -1.328,-0.37067 -0.31866,-0.24933 -0.548,-0.584 -0.68933,-1.008 -0.208,-0.684 -0.17467,-1.52133 0.104,-2.51067 l 3.28533,-11.70133 h -3.32266 l 0.91333,-3.25333 h 3.324 l 1.964,-7 h 5.48133 l -1.96533,7 h 3.99467 l -0.91467,3.25333 h -3.99467 l -3.18533,11.348 c -0.0867,0.30667 -0.068,0.55467 0.056,0.74267 0.124,0.18933 0.31467,0.284 0.57467,0.284 h 3.81866 z"
       style="fill:#595757;fill-opacity:1;fill-rule:nonzero;stroke:none;stroke-width:1.33333"
       id="path1526" /><path
       d="m 281.86121,111.56905 c 0.0867,-0.48267 0.0933,-0.924 0.0173,-1.32533 -0.156,-0.87067 -0.64933,-1.37867 -1.48267,-1.52134 -0.45066,-0.0693 -0.94266,-0.0213 -1.47066,0.14267 -0.53067,0.16533 -1.01867,0.46 -1.468,0.884 -0.456,0.448 -0.84667,0.956 -1.17067,1.52 -0.32267,0.56533 -0.596,1.12 -0.81867,1.66133 h 6.01067 c 0.16533,-0.424 0.29333,-0.87733 0.38267,-1.36133 m 2.668,9.316 c -0.80667,0.98933 -1.71734,1.816 -2.72667,2.476 -1.03467,0.66 -2.132,1.10133 -3.28933,1.32533 -1.15867,0.224 -2.25334,0.324 -3.28534,0.3 -1.43066,-0.024 -2.73066,-0.3 -3.90133,-0.832 -1.17067,-0.52933 -2.00933,-1.40666 -2.51333,-2.63333 -0.37467,-0.84667 -0.55334,-1.808 -0.53467,-2.88 0.0187,-1.072 0.19867,-2.176 0.54,-3.30667 0.296,-1.06 0.72667,-2.108 1.28933,-3.14533 0.56134,-1.03733 1.252,-2.004 2.068,-2.9 0.976,-1.03733 2.04534,-1.86133 3.20667,-2.47467 1.16133,-0.612 2.37333,-1.02533 3.63467,-1.23733 1.04266,-0.18933 2.08266,-0.21733 3.11866,-0.0893 1.036,0.13066 1.95067,0.42 2.744,0.868 0.712,0.40133 1.30534,0.93066 1.78134,1.59066 0.47466,0.65867 0.77733,1.42667 0.90933,2.29734 0.22533,1.29733 0.0387,2.676 -0.56133,4.136 -0.19867,0.54266 -0.50934,0.96133 -0.93467,1.256 -0.424,0.29466 -0.908,0.44133 -1.45067,0.44133 h -10.252 c -0.21066,0.75467 -0.352,1.52667 -0.42133,2.316 -0.0667,0.79067 0.0453,1.50267 0.33733,2.14 0.204,0.44667 0.488,0.78267 0.848,1.008 0.36267,0.22267 0.77734,0.33333 1.25067,0.33333 0.47733,-0.0213 0.97467,-0.15733 1.49333,-0.40533 0.51467,-0.248 0.97067,-0.60667 1.36134,-1.07867 0.6,-0.70666 1.068,-1.532 1.40266,-2.47466 h 5.65734 c -0.372,0.98933 -0.964,1.98 -1.772,2.96933"
       style="fill:#595757;fill-opacity:1;fill-rule:nonzero;stroke:none;stroke-width:1.33333"
       id="path1523" /><path
       d="m 302.36641,111.56905 c 0.0867,-0.48267 0.0933,-0.924 0.0173,-1.32533 -0.156,-0.87067 -0.64933,-1.37867 -1.48267,-1.52134 -0.45066,-0.0693 -0.94266,-0.0213 -1.47066,0.14267 -0.53067,0.16533 -1.01867,0.46 -1.468,0.884 -0.456,0.448 -0.84667,0.956 -1.17067,1.52 -0.32267,0.56533 -0.596,1.12 -0.81867,1.66133 h 6.01067 c 0.16533,-0.424 0.29333,-0.87733 0.38267,-1.36133 m 2.668,9.316 c -0.80667,0.98933 -1.71734,1.816 -2.72667,2.476 -1.03467,0.66 -2.132,1.10133 -3.28933,1.32533 -1.15867,0.224 -2.25334,0.324 -3.28534,0.3 -1.43066,-0.024 -2.73066,-0.3 -3.90133,-0.832 -1.17067,-0.52933 -2.00933,-1.40666 -2.51333,-2.63333 -0.37467,-0.84667 -0.55334,-1.808 -0.53467,-2.88 0.0187,-1.072 0.19867,-2.176 0.54,-3.30667 0.296,-1.06 0.72667,-2.108 1.28933,-3.14533 0.56134,-1.03733 1.252,-2.004 2.068,-2.9 0.976,-1.03733 2.04534,-1.86133 3.20667,-2.47467 1.16133,-0.612 2.37333,-1.02533 3.63467,-1.23733 1.04266,-0.18933 2.08266,-0.21733 3.11866,-0.0893 1.036,0.13066 1.95067,0.42 2.744,0.868 0.712,0.40133 1.30534,0.93066 1.78134,1.59066 0.47466,0.65867 0.77733,1.42667 0.90933,2.29734 0.22533,1.29733 0.0387,2.676 -0.56133,4.136 -0.19867,0.54266 -0.50934,0.96133 -0.93467,1.256 -0.424,0.29466 -0.908,0.44133 -1.45067,0.44133 h -10.252 c -0.21066,0.75467 -0.352,1.52667 -0.42133,2.316 -0.0667,0.79067 0.0453,1.50267 0.33733,2.14 0.204,0.44667 0.488,0.78267 0.848,1.008 0.36267,0.22267 0.77734,0.33333 1.25067,0.33333 0.47733,-0.0213 0.97467,-0.15733 1.49333,-0.40533 0.51467,-0.248 0.97067,-0.60667 1.36134,-1.07867 0.6,-0.70666 1.068,-1.532 1.40266,-2.47466 h 5.65734 c -0.372,0.98933 -0.964,1.98 -1.772,2.96933"
       style="fill:#595757;fill-opacity:1;fill-rule:nonzero;stroke:none;stroke-width:1.33333"
       id="path1520" /><path
       d="m 308.60601,124.59772 7.256,-25.844 h 5.44533 l -7.256,25.844 z"
       style="fill:#595757;fill-opacity:1;fill-rule:nonzero;stroke:none;stroke-width:1.33333"
       id="path1517" /><path
       d="m 342.75694,101.93492 c -0.236,0 -0.508,0.10666 -0.81333,0.31866 -0.308,0.21067 -0.49734,0.448 -0.57067,0.708 l -0.964,3.42934 h 4.06667 l -0.89334,3.18133 h -4.06666 l -4.21867,15.02533 h -5.48 l 4.21867,-15.02533 h -3.18134 l 0.89334,-3.18133 h 3.18133 l 1.07333,-3.81867 c 0.36267,-1.296 1.012,-2.264 1.94534,-2.9 0.90133,-0.612 1.90666,-0.91867 3.01466,-0.91867 h 6.36534 l -0.89334,3.18134 z"
       style="fill:#595757;fill-opacity:1;fill-rule:nonzero;stroke:none;stroke-width:1.33333"
       id="path1514" /><path
       d="m 354.60721,120.42572 c 0.0787,-0.28267 0.17466,-0.62534 0.288,-1.02667 0.112,-0.39867 0.22933,-0.81733 0.35066,-1.25333 l 0.368,-1.308 c 0.12267,-0.43734 0.22667,-0.808 0.31334,-1.11334 -0.43467,0.11734 -0.932,0.22934 -1.492,0.336 -0.56,0.10534 -1.08134,0.18134 -1.56667,0.228 -0.34267,0.048 -0.68933,0.108 -1.03867,0.176 -0.352,0.072 -0.67866,0.19067 -0.984,0.356 -0.30533,0.164 -0.576,0.35334 -0.81333,0.56534 -0.23467,0.212 -0.45867,0.48266 -0.67067,0.812 -0.35333,0.59066 -0.53333,1.10266 -0.53733,1.53733 -0.005,0.43733 0.11467,0.808 0.36,1.11467 0.44,0.61333 1.19733,0.81333 2.27067,0.60133 0.47333,-0.0947 1.00533,-0.24133 1.59066,-0.44267 0.58667,-0.2 1.10667,-0.39333 1.56134,-0.58266 m -0.39467,4.172 c -0.04,-0.188 -0.0533,-0.42 -0.0347,-0.69067 0.0147,-0.27067 0.0293,-0.51067 0.0427,-0.724 -0.74667,0.472 -1.52133,0.84267 -2.32667,1.11333 -0.80933,0.272 -1.64,0.46534 -2.49733,0.58534 -0.928,0.116 -1.828,0.104 -2.69467,-0.0373 -0.86933,-0.14 -1.62133,-0.424 -2.256,-0.84666 -0.94533,-0.66134 -1.44666,-1.604 -1.50266,-2.82934 -0.04,-0.612 0.052,-1.27733 0.27733,-1.99733 0.22533,-0.71867 0.54533,-1.396 0.96133,-2.03333 0.42,-0.66 0.89867,-1.21334 1.43867,-1.66134 0.536,-0.448 1.10533,-0.81333 1.70267,-1.096 0.79733,-0.40133 1.608,-0.672 2.43866,-0.81333 0.828,-0.14133 1.64267,-0.248 2.44,-0.31867 0.76667,-0.0467 1.56134,-0.128 2.38534,-0.24666 0.82266,-0.11734 1.56666,-0.27067 2.23333,-0.46 0.048,-0.25867 0.10933,-0.51867 0.18267,-0.77734 0.0733,-0.25866 0.132,-0.51866 0.18266,-0.77866 0.16134,-0.824 -0.044,-1.484 -0.61066,-1.97867 -0.344,-0.284 -0.808,-0.42 -1.388,-0.408 -0.58134,0.0133 -1.12134,0.11333 -1.62267,0.3 -0.608,0.236 -1.11867,0.60267 -1.52667,1.09733 -0.41066,0.49467 -0.728,1.01334 -0.95066,1.55467 h -5.692 c 0.43066,-0.776 0.92666,-1.53733 1.48933,-2.28 0.56267,-0.74267 1.29733,-1.384 2.20267,-1.928 0.936,-0.564 1.93733,-1.00133 3.00133,-1.30667 1.064,-0.30533 2.13333,-0.48133 3.208,-0.52933 1.096,-0.0493 2.15067,0.0347 3.16533,0.24667 1.012,0.21066 1.87867,0.588 2.59867,1.132 0.63733,0.49466 1.09333,1.136 1.36667,1.92666 0.27333,0.78934 0.25333,1.75067 -0.0653,2.88 -0.16533,0.59067 -0.35333,1.27867 -0.56266,2.06934 -0.212,0.78933 -0.42,1.596 -0.628,2.42133 -0.20667,0.82533 -0.41334,1.61467 -0.61067,2.36933 -0.20267,0.75334 -0.36,1.37867 -0.47467,1.87334 -0.352,1.50933 -0.44933,2.9 -0.28666,4.172 z"
       style="fill:#595757;fill-opacity:1;fill-rule:nonzero;stroke:none;stroke-width:1.33333"
       id="path1511" /><path
       d="m 377.13334,114.73438 c 0.22133,-0.872 0.364,-1.68 0.432,-2.42133 0.068,-0.744 0.0413,-1.328 -0.0733,-1.75067 -0.124,-0.40133 -0.30934,-0.748 -0.55467,-1.04266 -0.24933,-0.29467 -0.608,-0.48934 -1.07467,-0.58534 -0.404,-0.0693 -0.808,-0.0627 -1.20666,0.02 -0.40134,0.0827 -0.82,0.22934 -1.25734,0.44 -0.44133,0.236 -0.85333,0.52667 -1.232,0.868 -0.37866,0.34134 -0.68133,0.748 -0.90666,1.22 l -2.35334,8.37867 c 0.11867,0.32933 0.32934,0.64667 0.63334,0.95333 0.30266,0.30667 0.56133,0.496 0.77866,0.56667 0.39867,0.164 0.808,0.26533 1.22267,0.3 0.41333,0.036 0.86267,-0.0533 1.34667,-0.26533 0.53866,-0.236 1.02533,-0.58934 1.46533,-1.06 0.43733,-0.472 0.83733,-1.01334 1.19867,-1.628 0.36133,-0.612 0.67066,-1.25867 0.936,-1.944 0.26133,-0.684 0.47733,-1.36534 0.64533,-2.04934 m 5.92266,-0.31866 c -0.22533,0.96666 -0.55066,1.93866 -0.97733,2.916 -0.428,0.98 -0.944,1.916 -1.55066,2.812 -0.548,0.77733 -1.16934,1.50266 -1.86534,2.17333 -0.69466,0.672 -1.49733,1.244 -2.408,1.716 -0.88666,0.47067 -1.85066,0.77733 -2.892,0.91733 -1.04133,0.14267 -2.02,0.11867 -2.932,-0.0693 -0.58,-0.11867 -1.06133,-0.312 -1.444,-0.584 -0.384,-0.27067 -0.736,-0.59333 -1.05333,-0.972 l -0.35733,1.272 h -5.48 l 7.26666,-25.87867 h 5.48 l -2.47066,8.80267 c 0.72,-0.636 1.49333,-1.124 2.32,-1.46667 0.82533,-0.34133 1.65733,-0.53466 2.49733,-0.58266 1.228,-0.0947 2.25733,0.0347 3.08933,0.388 0.83067,0.35333 1.496,0.86 1.99467,1.52 0.61067,0.848 0.97333,1.88533 1.08933,3.11066 0.116,1.22667 0.0133,2.536 -0.30667,3.92534"
       style="fill:#595757;fill-opacity:1;fill-rule:nonzero;stroke:none;stroke-width:1.33333"
       id="path1508" /><path
       d="m 398.994,109.58985 c -0.476,-0.10533 -0.96533,-0.14667 -1.468,-0.12533 -0.908,0.048 -1.76933,0.26266 -2.58133,0.63733 -0.544,0.26 -1.06667,0.60667 -1.56533,1.04267 -0.5,0.43733 -0.91067,0.89066 -1.232,1.36266 l -3.39467,12.09067 h -5.444 l 5.292,-18.844 h 5.444 l -0.71467,2.54533 c 0.58534,-0.65866 1.22667,-1.20133 1.924,-1.62666 0.696,-0.424 1.416,-0.74267 2.15734,-0.95334 1.388,-0.4 2.724,-0.42533 4.016,-0.0707 l -1.23067,4.384 c -0.324,-0.19067 -0.72667,-0.336 -1.20267,-0.44267"
       style="fill:#595757;fill-opacity:1;fill-rule:nonzero;stroke:none;stroke-width:1.33333"
       id="path1505" /><path
       d="m 404.7908,103.73825 1.41067,-5.02 h 5.44533 l -1.41066,5.02 z m -5.85733,20.86 5.28133,-18.80933 h 5.44534 l -5.28134,18.80933 z"
       style="fill:#595757;fill-opacity:1;fill-rule:nonzero;stroke:none;stroke-width:1.33333"
       id="path1502" /><path
       d="m 427.09947,119.54172 c -0.38533,0.66133 -0.83733,1.28533 -1.35733,1.87333 -0.89067,0.98933 -1.87467,1.74533 -2.94934,2.264 -1.07866,0.51867 -2.19866,0.884 -3.36666,1.096 -1.416,0.25867 -2.79734,0.28267 -4.13734,0.0707 -1.34533,-0.21334 -2.44266,-0.684 -3.29866,-1.41467 -0.81467,-0.70667 -1.34267,-1.56133 -1.58,-2.56267 -0.236,-1.00266 -0.29067,-2.06933 -0.16134,-3.2 0.084,-0.636 0.216,-1.31466 0.39467,-2.03333 0.17867,-0.71867 0.40933,-1.43733 0.69467,-2.15733 0.284,-0.71734 0.632,-1.41334 1.04533,-2.08534 0.41067,-0.67066 0.87067,-1.27733 1.376,-1.82133 0.812,-0.87067 1.75467,-1.64933 2.82933,-2.332 1.07734,-0.68267 2.13334,-1.15467 3.172,-1.41467 1.016,-0.25866 2.03067,-0.40666 3.04134,-0.44133 1.012,-0.036 1.952,0.0747 2.824,0.336 0.892,0.25867 1.64,0.66 2.24266,1.20133 0.60134,0.54267 1.02534,1.21334 1.27334,2.01467 0.31733,0.968 0.33333,2.04 0.0507,3.21867 h -5.62133 c 0.064,-0.236 0.11867,-0.472 0.16267,-0.70667 0.0427,-0.236 0.0733,-0.472 0.0933,-0.708 0.0373,-0.30533 0.024,-0.596 -0.04,-0.86667 -0.0653,-0.27066 -0.21067,-0.512 -0.43333,-0.724 -0.28134,-0.25866 -0.63467,-0.408 -1.06,-0.44266 -0.42667,-0.0347 -0.86267,0.0307 -1.31067,0.19466 -0.708,0.25867 -1.316,0.684 -1.82267,1.272 -0.50933,0.59067 -0.91866,1.19067 -1.232,1.804 -0.42,0.824 -0.784,1.70267 -1.09333,2.63467 -0.30933,0.93067 -0.53867,1.832 -0.688,2.70267 -0.116,0.66133 -0.17867,1.28533 -0.19067,1.87466 -0.0133,0.58934 0.15867,1.132 0.51467,1.62534 0.232,0.35466 0.55467,0.608 0.972,0.76133 0.416,0.15333 0.88933,0.17067 1.416,0.052 0.42133,-0.0693 0.82667,-0.21733 1.22,-0.44267 0.39333,-0.22266 0.74,-0.53466 1.04267,-0.936 0.29866,-0.4 0.568,-0.85333 0.80533,-1.36 0.23733,-0.50666 0.42133,-0.96133 0.55867,-1.36133 h 5.62266 c -0.288,0.684 -0.624,1.356 -1.00933,2.01467"
       style="fill:#595757;fill-opacity:1;fill-rule:nonzero;stroke:none;stroke-width:1.33333"
       id="path1499" /><path
       d="m 441.22307,120.42572 c 0.0787,-0.28267 0.17467,-0.62534 0.288,-1.02667 0.112,-0.39867 0.22933,-0.81733 0.35067,-1.25333 l 0.368,-1.308 c 0.12266,-0.43734 0.22666,-0.808 0.31333,-1.11334 -0.43467,0.11734 -0.932,0.22934 -1.492,0.336 -0.56,0.10534 -1.08133,0.18134 -1.56667,0.228 -0.34266,0.048 -0.68933,0.108 -1.03866,0.176 -0.352,0.072 -0.67867,0.19067 -0.984,0.356 -0.30534,0.164 -0.576,0.35334 -0.81334,0.56534 -0.23466,0.212 -0.45866,0.48266 -0.67066,0.812 -0.35334,0.59066 -0.53334,1.10266 -0.53734,1.53733 -0.005,0.43733 0.11467,0.808 0.36,1.11467 0.44,0.61333 1.19734,0.81333 2.27067,0.60133 0.47333,-0.0947 1.00533,-0.24133 1.59067,-0.44267 0.58666,-0.2 1.10666,-0.39333 1.56133,-0.58266 m -0.39467,4.172 c -0.04,-0.188 -0.0533,-0.42 -0.0347,-0.69067 0.0147,-0.27067 0.0293,-0.51067 0.0427,-0.724 -0.74666,0.472 -1.52133,0.84267 -2.32666,1.11333 -0.80934,0.272 -1.64,0.46534 -2.49734,0.58534 -0.928,0.116 -1.828,0.104 -2.69466,-0.0373 -0.86934,-0.14 -1.62134,-0.424 -2.256,-0.84666 -0.94534,-0.66134 -1.44667,-1.604 -1.50267,-2.82934 -0.04,-0.612 0.052,-1.27733 0.27733,-1.99733 0.22534,-0.71867 0.54534,-1.396 0.96134,-2.03333 0.42,-0.66 0.89866,-1.21334 1.43866,-1.66134 0.536,-0.448 1.10534,-0.81333 1.70267,-1.096 0.79733,-0.40133 1.608,-0.672 2.43867,-0.81333 0.828,-0.14133 1.64266,-0.248 2.44,-0.31867 0.76666,-0.0467 1.56133,-0.128 2.38533,-0.24666 0.82267,-0.11734 1.56667,-0.27067 2.23333,-0.46 0.048,-0.25867 0.10934,-0.51867 0.18267,-0.77734 0.0733,-0.25866 0.132,-0.51866 0.18267,-0.77866 0.16133,-0.824 -0.044,-1.484 -0.61067,-1.97867 -0.344,-0.284 -0.808,-0.42 -1.388,-0.408 -0.58133,0.0133 -1.12133,0.11333 -1.62267,0.3 -0.608,0.236 -1.11866,0.60267 -1.52666,1.09733 -0.41067,0.49467 -0.728,1.01334 -0.95067,1.55467 h -5.692 c 0.43067,-0.776 0.92667,-1.53733 1.48933,-2.28 0.56267,-0.74267 1.29734,-1.384 2.20267,-1.928 0.936,-0.564 1.93733,-1.00133 3.00133,-1.30667 1.064,-0.30533 2.13334,-0.48133 3.208,-0.52933 1.096,-0.0493 2.15067,0.0347 3.16534,0.24667 1.012,0.21066 1.87866,0.588 2.59866,1.132 0.63734,0.49466 1.09334,1.136 1.36667,1.92666 0.27333,0.78934 0.25333,1.75067 -0.0653,2.88 -0.16534,0.59067 -0.35334,1.27867 -0.56267,2.06934 -0.212,0.78933 -0.42,1.596 -0.628,2.42133 -0.20667,0.82533 -0.41333,1.61467 -0.61067,2.36933 -0.20266,0.75334 -0.36,1.37867 -0.47466,1.87334 -0.352,1.50933 -0.44934,2.9 -0.28667,4.172 z"
       style="fill:#595757;fill-opacity:1;fill-rule:nonzero;stroke:none;stroke-width:1.33333"
       id="path1496" /><path
       d="m 460.45094,124.59772 h -6.152 c -0.56534,0 -1.008,-0.124 -1.328,-0.37067 -0.31867,-0.24933 -0.548,-0.584 -0.68934,-1.008 -0.208,-0.684 -0.17466,-1.52133 0.104,-2.51067 l 3.28534,-11.70133 h -3.32267 l 0.91333,-3.25333 h 3.324 l 1.964,-7 h 5.48134 l -1.96534,7 h 3.99467 l -0.91467,3.25333 h -3.99466 l -3.18534,11.348 c -0.0867,0.30667 -0.068,0.55467 0.056,0.74267 0.124,0.18933 0.31467,0.284 0.57467,0.284 h 3.81867 z"
       style="fill:#595757;fill-opacity:1;fill-rule:nonzero;stroke:none;stroke-width:1.33333"
       id="path1493" /><path
       d="m 470.19574,103.73825 1.41066,-5.02 h 5.44534 l -1.41067,5.02 z m -5.85734,20.86 5.28134,-18.80933 h 5.44533 l -5.28133,18.80933 z"
       style="fill:#595757;fill-opacity:1;fill-rule:nonzero;stroke:none;stroke-width:1.33333"
       id="path1490" /><path
       d="m 487.21014,118.94145 c 0.25866,-0.58933 0.52133,-1.208 0.78666,-1.85733 0.264,-0.648 0.50134,-1.30134 0.70934,-1.96134 0.208,-0.65866 0.36933,-1.31466 0.48,-1.96133 0.11066,-0.648 0.15733,-1.268 0.13333,-1.85733 -0.0373,-0.70667 -0.19333,-1.30267 -0.47067,-1.784 -0.27733,-0.484 -0.82533,-0.73734 -1.64266,-0.76267 -0.84267,-0.0213 -1.57067,0.21867 -2.18534,0.72667 -0.61333,0.50666 -1.156,1.13733 -1.624,1.89066 -0.27466,0.47334 -0.53866,1.02534 -0.78666,1.66134 -0.24934,0.63733 -0.47467,1.29066 -0.67467,1.96266 -0.2,0.672 -0.364,1.33734 -0.49067,1.99867 -0.12666,0.65867 -0.212,1.23733 -0.256,1.73067 -0.056,0.872 0.076,1.59733 0.39734,2.176 0.32,0.57733 0.95466,0.85333 1.904,0.83066 0.84933,0 1.59333,-0.26 2.23466,-0.77866 0.64,-0.51734 1.13467,-1.19067 1.48534,-2.01467 m 7.09866,-3.5 c -0.27466,0.89467 -0.64,1.83733 -1.09333,2.828 -0.456,0.98933 -1.01733,1.87333 -1.68267,2.65067 -1.09466,1.29733 -2.38,2.28666 -3.856,2.97066 -1.47733,0.684 -2.97733,1.048 -4.49733,1.09467 -1.66933,0.072 -3.06933,-0.128 -4.19733,-0.6 -1.13067,-0.472 -1.97334,-1.17867 -2.53334,-2.12133 -1.016,-1.67334 -1.15333,-3.912 -0.412,-6.71734 0.34,-1.29733 0.87067,-2.604 1.596,-3.924 0.72534,-1.32 1.67334,-2.47466 2.84667,-3.46533 1.10667,-0.91733 2.308,-1.60133 3.59867,-2.05067 1.29333,-0.448 2.58666,-0.672 3.88266,-0.672 1.41467,0 2.64534,0.27867 3.692,0.83067 1.04667,0.55467 1.85734,1.36267 2.43067,2.42267 0.52267,0.99066 0.78667,2.052 0.78667,3.18133 0,1.132 -0.188,2.32133 -0.56134,3.572"
       style="fill:#595757;fill-opacity:1;fill-rule:nonzero;stroke:none;stroke-width:1.33333"
       id="path1487" /><path
       d="m 506.33907,124.59772 3.772,-13.43467 c 0.14,-0.49467 0.148,-0.92667 0.0267,-1.29067 -0.12134,-0.364 -0.356,-0.64133 -0.70267,-0.83066 -0.348,-0.188 -0.772,-0.27734 -1.26933,-0.264 -0.49867,0.0107 -1.044,0.14533 -1.63467,0.40533 -0.78267,0.35333 -1.44133,0.84933 -1.97333,1.48533 -0.53067,0.636 -0.89467,1.296 -1.08534,1.98 l -3.356,11.94934 h -5.62133 l 5.292,-18.844 h 5.62133 l -0.68533,2.43866 c 0.576,-0.54133 1.21333,-1.02933 1.91467,-1.46533 0.7,-0.436 1.40533,-0.74933 2.11866,-0.93733 0.81467,-0.21334 1.624,-0.33067 2.43334,-0.35467 0.80666,-0.0227 1.552,0.0947 2.23333,0.35467 0.57733,0.212 1.08,0.51733 1.50933,0.91866 0.43067,0.40134 0.736,0.908 0.91734,1.52 0.22666,0.872 0.18666,1.85067 -0.11734,2.93467 l -3.772,13.43467 z"
       style="fill:#595757;fill-opacity:1;fill-rule:nonzero;stroke:none;stroke-width:1.33333"
       id="path1484" /></g></svg>
