<svg width="336" height="54" viewBox="0 0 336 54" fill="none" xmlns="http://www.w3.org/2000/svg">
<path d="M111.397 33.78H136.827C138.727 33.78 141.357 35.58 142.137 37.42L144.527 43.05H120.167C117.727 43.05 114.347 40.73 113.347 38.38L111.397 33.78Z" fill="#D7A635"/>
<path d="M108.767 6.72001C105.897 2.24001 100.177 0.0100098 91.617 0.0100098H80.087C72.517 0.0100098 65.897 5.08001 63.917 12.39H71.767C73.427 12.39 75.007 11.7 76.177 10.52C76.947 9.74001 78.017 9.27001 79.167 9.27001H88.8969C93.8469 9.27001 96.917 10.52 98.127 13.02C99.337 15.52 99.047 20.05 97.277 26.61C95.497 33.2 93.327 37.73 90.777 40.22C88.227 42.7 84.477 43.95 79.527 43.95H66.567L72.587 21.66H61.407L52.877 53.22H77.557C81.657 53.22 85.037 52.86 87.697 52.13C90.217 51.45 92.7869 50.26 95.3969 48.55C102.027 44.18 106.647 37.19 109.247 27.56C111.787 18.15 111.627 11.21 108.757 6.73001L108.767 6.72001Z" fill="#0081CC"/>
<path d="M335.807 54H330.567C327.577 54 324.947 52 324.167 49.11L315.777 18.35L299.067 50.54C297.887 52.85 296.247 54 294.147 54C291.787 54 289.997 52.82 288.767 50.46L272.147 18.53L263.737 49.14C262.947 52.01 260.337 54 257.367 54H252.027L265.007 5.17002C265.317 3.79002 265.997 2.58002 267.047 1.56002C268.097 0.54002 269.317 0.0200195 270.697 0.0200195C272.697 0.0200195 274.597 1.74002 276.387 5.17002L293.917 39.55L311.527 5.17002C313.317 1.74002 315.217 0.0200195 317.217 0.0200195C318.547 0.0200195 319.777 0.56002 320.907 1.63002C321.877 2.60002 322.547 3.78002 322.907 5.17002L335.817 54H335.807Z" fill="white"/>
<path d="M149.547 22.24C149.607 24.59 150.237 26.48 151.487 27.89C153.657 30.34 157.807 31.56 163.937 31.56H177.147C180.037 31.56 181.957 32.03 182.897 32.97C183.837 33.91 184.007 35.49 183.407 37.71C182.817 39.88 181.747 41.43 180.187 42.34C178.627 43.26 176.267 43.72 173.107 43.72L145.137 43.67L147.087 48.4C147.997 50.61 150.887 52.77 153.247 53.13C153.397 53.15 153.547 53.17 153.697 53.18C153.767 53.18 153.837 53.2 153.907 53.2H173.737L173.717 53.16C179.467 52.98 184.057 51.72 187.467 49.34C191.157 46.77 193.737 42.75 195.217 37.27C196.677 31.86 196.427 28 194.457 25.69C192.487 23.37 188.437 22.22 182.317 22.22H170.647L149.547 22.23V22.24Z" fill="white"/>
<path d="M173.447 0.0100098C166.957 0.0100098 161.867 1.31001 158.187 3.92001C155.267 5.98001 153.047 9.01001 151.477 12.98H159.577C164.607 12.98 165.477 11.35 165.807 11.12C167.497 9.94001 168.967 9.49001 172.517 9.49001H194.747C197.947 9.49001 200.747 7.35001 201.577 4.26001L202.727 0.0100098H173.447Z" fill="white"/>
<path d="M34.0071 0.0700684C25.4671 0.0700684 18.5471 2.31007 13.2371 6.80007C11.2071 8.52007 9.38708 10.6001 7.75708 13.0401H17.0371C19.2771 13.0401 21.5371 12.5701 23.4471 11.3901C25.7371 9.98007 28.4271 9.26007 31.5171 9.26007H46.2371C51.7571 9.26007 56.5871 5.56007 58.0271 0.230068L58.0671 0.0700684H33.9971H34.0071Z" fill="#0081CC"/>
<path d="M1.47705 27.61C-1.12295 37.24 -0.292952 44.23 3.98705 48.6C5.66705 50.31 7.57705 51.51 9.71705 52.18C12.007 52.9 15.307 53.27 19.627 53.27H37.667C41.227 53.27 44.337 50.89 45.267 47.45L52.227 21.71H31.097C27.957 21.71 25.197 23.82 24.377 26.85L23.227 31.12H38.2071L34.827 43.64H22.237C17.817 43.64 14.967 42.34 13.667 39.74C12.367 37.14 12.507 32.93 14.077 27.12C14.547 25.38 15.067 23.78 15.627 22.3H3.19705C2.57705 23.98 1.99705 25.73 1.49705 27.61H1.47705Z" fill="#0081CC"/>
<path d="M251.357 9.27H238.467L228.507 46.88C227.527 50.59 224.167 53.17 220.327 53.17H216.097L227.717 9.27H207.497L208.187 6.65C209.227 2.73 212.767 0 216.817 0H260.057L259.207 3.2C258.257 6.77 255.027 9.26 251.327 9.26L251.357 9.27Z" fill="white"/>
</svg>
